<svg width="256" height="256" viewBox="-10 0 276 256" xmlns="http://www.w3.org/2000/svg" preserveAspectRatio="xMidYMid">
    <defs>
        <linearGradient id="gradient" x1="0%" y1="0%" x2="100%" y2="100%">
            <stop offset="0%" stop-color="#B0E0E6" stop-opacity="0.8"/>
            <stop offset="100%" stop-color="#5CADFF" stop-opacity="0.8"/>
        </linearGradient>
    </defs>
    <g fill="url(#gradient)">
        <g transform="rotate(-45 128 128)">
            <path id="bone"
                  d="M198.391408,180.367981 L193.999598,175.983983 L193.183633,175.231984 C175.692223,158.229842 152.259032,148.72127 127.866462,148.727998 C103.47666,148.723353 80.0467155,158.231772 62.5572906,175.231984 L61.9893152,175.791983 L57.6615026,180.175981 L48.3739049,189.439976 C43.0694477,194.804706 35.8389864,197.823769 28.2947745,197.823972 C20.7949046,197.8258 13.6002253,194.85402 8.28764106,189.559976 C2.98341549,184.271961 0,177.090001 0,169.599987 C0,162.109972 2.98341549,154.928012 8.28764106,149.639997 L28.2947745,129.680008 L8.53563032,110.024018 C3.08407924,104.716512 0.00624993519,97.4326776 0,89.824029 C0,82.336033 2.98387077,75.1600368 8.28764106,69.8640396 C19.3474124,58.8308793 37.2501363,58.8308793 48.3099077,69.8640396 L62.8052799,84.3200319 C80.3047519,101.306908 103.734734,110.805568 128.122451,110.800018 C152.521394,110.800018 175.960379,101.296023 193.431622,84.3200319 C193.609078,84.0785906 193.822164,83.8654953 194.063595,83.6880323 L202.279239,75.4320366 L207.743002,70.0480395 C213.020634,64.7369254 220.206944,61.7631523 227.694138,61.7920439 C235.197813,61.7920439 242.389502,64.7600423 247.693272,70.0560395 C255.820371,78.1417682 258.240006,90.3448451 253.813007,100.920023 C252.35707,104.368021 250.213163,107.48802 247.51728,110.096018 L227.694138,129.872008 L247.51728,149.647997 C252.949054,154.94062 256.005339,162.207906 255.988913,169.791987 C255.988913,177.271983 253.005042,184.447979 247.701272,189.743976 C236.663442,200.769784 218.780832,200.769784 207.743002,189.743976 L198.32741,180.367981 L198.391408,180.367981 Z"
            />
        </g>
        <g transform="rotate(45 128 128)">
            <use href="#bone"/>
        </g>
        <animateTransform
                attributeName="transform"
                attributeType="XML"
                type="rotate"
                from="0 128 128"
                to="360 128 128"
                dur="5s"
                repeatCount="indefinite"
        />
    </g>
</svg>